<mxfile host="www.draw.io" modified="2020-04-04T16:20:48.834Z" agent="5.0 (Macintosh; Intel Mac OS X 10_15_1) AppleWebKit/537.36 (KHTML, like Gecko) Chrome/80.0.3987.149 Safari/537.36" etag="TrY-XxREw1VnzW6uY79O" version="12.9.7" type="github" pages="8">
  <diagram id="UxQvX3HeTQNArgav00Xm" name="01 - test">
    <mxGraphModel dx="715" dy="352" grid="1" gridSize="10" guides="1" tooltips="1" connect="1" arrows="1" fold="1" page="1" pageScale="1" pageWidth="1920" pageHeight="1200" math="0" shadow="0">
      <root>
        <mxCell id="0" />
        <mxCell id="1" parent="0" />
        <mxCell id="euCAeU3gciGP6TKRb-bv-1" value="Testing with Microservices" style="rounded=0;whiteSpace=wrap;html=1;fillColor=#dae8fc;strokeColor=#6c8ebf;fontSize=37;fontStyle=1" vertex="1" parent="1">
          <mxGeometry x="570" y="280" width="390" height="130" as="geometry" />
        </mxCell>
      </root>
    </mxGraphModel>
  </diagram>
  <diagram id="CBauR4w0Lt-ZCHWAu02Y" name="08 - scope">
    <mxGraphModel dx="639" dy="314" grid="1" gridSize="10" guides="1" tooltips="1" connect="1" arrows="1" fold="1" page="1" pageScale="1" pageWidth="1920" pageHeight="1200" math="0" shadow="0">
      <root>
        <mxCell id="0Lfw-ananQCHWXgj25-4-0" />
        <mxCell id="0Lfw-ananQCHWXgj25-4-1" parent="0Lfw-ananQCHWXgj25-4-0" />
        <mxCell id="0Lfw-ananQCHWXgj25-4-6" style="edgeStyle=orthogonalEdgeStyle;rounded=0;orthogonalLoop=1;jettySize=auto;html=1;exitX=1;exitY=0.5;exitDx=0;exitDy=0;fontSize=15;" edge="1" parent="0Lfw-ananQCHWXgj25-4-1" source="0Lfw-ananQCHWXgj25-4-2">
          <mxGeometry relative="1" as="geometry">
            <mxPoint x="1000" y="350.2307692307693" as="targetPoint" />
          </mxGeometry>
        </mxCell>
        <mxCell id="0Lfw-ananQCHWXgj25-4-2" value="Test a single piece of code in isolation" style="rounded=0;whiteSpace=wrap;html=1;strokeWidth=1;fontSize=15;align=center;fillColor=#dae8fc;strokeColor=#6c8ebf;" vertex="1" parent="0Lfw-ananQCHWXgj25-4-1">
          <mxGeometry x="680" y="330" width="290" height="40" as="geometry" />
        </mxCell>
        <mxCell id="0Lfw-ananQCHWXgj25-4-3" value="" style="shape=curlyBracket;whiteSpace=wrap;html=1;rounded=1;strokeWidth=1;fontSize=20;align=center;" vertex="1" parent="0Lfw-ananQCHWXgj25-4-1">
          <mxGeometry x="610" y="330" width="60" height="190" as="geometry" />
        </mxCell>
        <mxCell id="0Lfw-ananQCHWXgj25-4-4" value="Whats the scope of our tests?" style="text;html=1;strokeColor=none;fillColor=none;align=right;verticalAlign=middle;whiteSpace=wrap;rounded=0;fontSize=20;fontStyle=1" vertex="1" parent="0Lfw-ananQCHWXgj25-4-1">
          <mxGeometry x="440" y="415" width="170" height="20" as="geometry" />
        </mxCell>
        <mxCell id="0Lfw-ananQCHWXgj25-4-5" value="Test how different pieces of code work together" style="rounded=0;whiteSpace=wrap;html=1;strokeWidth=1;fontSize=15;align=center;fillColor=#dae8fc;strokeColor=#6c8ebf;" vertex="1" parent="0Lfw-ananQCHWXgj25-4-1">
          <mxGeometry x="680" y="380" width="290" height="40" as="geometry" />
        </mxCell>
        <mxCell id="0Lfw-ananQCHWXgj25-4-7" value="Single middleware" style="rounded=0;whiteSpace=wrap;html=1;strokeWidth=1;fontSize=15;align=center;fillColor=#f5f5f5;strokeColor=#666666;fontColor=#333333;" vertex="1" parent="0Lfw-ananQCHWXgj25-4-1">
          <mxGeometry x="1000" y="330" width="300" height="40" as="geometry" />
        </mxCell>
        <mxCell id="0Lfw-ananQCHWXgj25-4-8" value="Example" style="text;html=1;strokeColor=none;fillColor=none;align=center;verticalAlign=middle;whiteSpace=wrap;rounded=0;fontSize=15;fontStyle=2" vertex="1" parent="0Lfw-ananQCHWXgj25-4-1">
          <mxGeometry x="1130" y="310" width="40" height="20" as="geometry" />
        </mxCell>
        <mxCell id="0Lfw-ananQCHWXgj25-4-9" style="edgeStyle=orthogonalEdgeStyle;rounded=0;orthogonalLoop=1;jettySize=auto;html=1;exitX=1;exitY=0.5;exitDx=0;exitDy=0;fontSize=15;" edge="1" parent="0Lfw-ananQCHWXgj25-4-1">
          <mxGeometry relative="1" as="geometry">
            <mxPoint x="1000" y="400.2307692307693" as="targetPoint" />
            <mxPoint x="970" y="400" as="sourcePoint" />
          </mxGeometry>
        </mxCell>
        <mxCell id="0Lfw-ananQCHWXgj25-4-10" value="Request flowing through multiple middlewares to a request handler" style="rounded=0;whiteSpace=wrap;html=1;strokeWidth=1;fontSize=15;align=center;fillColor=#f5f5f5;strokeColor=#666666;fontColor=#333333;" vertex="1" parent="0Lfw-ananQCHWXgj25-4-1">
          <mxGeometry x="1000" y="380" width="300" height="40" as="geometry" />
        </mxCell>
        <mxCell id="0Lfw-ananQCHWXgj25-4-11" value="Test how different components work together" style="rounded=0;whiteSpace=wrap;html=1;strokeWidth=1;fontSize=15;align=center;fillColor=#dae8fc;strokeColor=#6c8ebf;" vertex="1" parent="0Lfw-ananQCHWXgj25-4-1">
          <mxGeometry x="680" y="430" width="290" height="40" as="geometry" />
        </mxCell>
        <mxCell id="0Lfw-ananQCHWXgj25-4-12" style="edgeStyle=orthogonalEdgeStyle;rounded=0;orthogonalLoop=1;jettySize=auto;html=1;exitX=1;exitY=0.5;exitDx=0;exitDy=0;fontSize=15;" edge="1" parent="0Lfw-ananQCHWXgj25-4-1">
          <mxGeometry relative="1" as="geometry">
            <mxPoint x="1000" y="450.2307692307693" as="targetPoint" />
            <mxPoint x="970" y="450" as="sourcePoint" />
          </mxGeometry>
        </mxCell>
        <mxCell id="0Lfw-ananQCHWXgj25-4-13" value="Make request to service, ensure write to database was completed" style="rounded=0;whiteSpace=wrap;html=1;strokeWidth=1;fontSize=15;align=center;fillColor=#f5f5f5;strokeColor=#666666;fontColor=#333333;" vertex="1" parent="0Lfw-ananQCHWXgj25-4-1">
          <mxGeometry x="1000" y="430" width="300" height="40" as="geometry" />
        </mxCell>
        <mxCell id="0Lfw-ananQCHWXgj25-4-14" value="Test how different services work together" style="rounded=0;whiteSpace=wrap;html=1;strokeWidth=1;fontSize=15;align=center;fillColor=#dae8fc;strokeColor=#6c8ebf;" vertex="1" parent="0Lfw-ananQCHWXgj25-4-1">
          <mxGeometry x="680" y="480" width="290" height="40" as="geometry" />
        </mxCell>
        <mxCell id="0Lfw-ananQCHWXgj25-4-15" style="edgeStyle=orthogonalEdgeStyle;rounded=0;orthogonalLoop=1;jettySize=auto;html=1;exitX=1;exitY=0.5;exitDx=0;exitDy=0;fontSize=15;" edge="1" parent="0Lfw-ananQCHWXgj25-4-1">
          <mxGeometry relative="1" as="geometry">
            <mxPoint x="1000" y="500.2307692307693" as="targetPoint" />
            <mxPoint x="970" y="500" as="sourcePoint" />
          </mxGeometry>
        </mxCell>
        <mxCell id="0Lfw-ananQCHWXgj25-4-16" value="Creating a &#39;payment&#39; at the &#39;payments&#39; service should affect the &#39;orders&#39; service" style="rounded=0;whiteSpace=wrap;html=1;strokeWidth=1;fontSize=15;align=center;fillColor=#f5f5f5;strokeColor=#666666;fontColor=#333333;" vertex="1" parent="0Lfw-ananQCHWXgj25-4-1">
          <mxGeometry x="1000" y="480" width="300" height="40" as="geometry" />
        </mxCell>
      </root>
    </mxGraphModel>
  </diagram>
  <diagram name="04 - bound" id="pHFuwi9SYoU4Zd0sCYam">
    <mxGraphModel dx="1669" dy="821" grid="1" gridSize="10" guides="1" tooltips="1" connect="1" arrows="1" fold="1" page="1" pageScale="1" pageWidth="1920" pageHeight="1200" math="0" shadow="0">
      <root>
        <mxCell id="iVHjcG8PVR0217KYwo8R-0" />
        <mxCell id="iVHjcG8PVR0217KYwo8R-1" parent="iVHjcG8PVR0217KYwo8R-0" />
        <mxCell id="iVHjcG8PVR0217KYwo8R-2" value="" style="rounded=0;whiteSpace=wrap;html=1;fontSize=18;" vertex="1" parent="iVHjcG8PVR0217KYwo8R-1">
          <mxGeometry x="450" y="290" width="1550" height="705" as="geometry" />
        </mxCell>
        <mxCell id="iVHjcG8PVR0217KYwo8R-3" value="Auth Service" style="rounded=0;whiteSpace=wrap;html=1;fillColor=#f5f5f5;strokeColor=#666666;fontColor=#333333;fontStyle=1;fontSize=22;" vertex="1" parent="iVHjcG8PVR0217KYwo8R-1">
          <mxGeometry x="840" y="315" width="700" height="35" as="geometry" />
        </mxCell>
        <mxCell id="iVHjcG8PVR0217KYwo8R-4" style="edgeStyle=orthogonalEdgeStyle;rounded=0;orthogonalLoop=1;jettySize=auto;html=1;exitX=1;exitY=0.5;exitDx=0;exitDy=0;fontSize=24;" edge="1" parent="iVHjcG8PVR0217KYwo8R-1" source="iVHjcG8PVR0217KYwo8R-6" target="iVHjcG8PVR0217KYwo8R-20">
          <mxGeometry relative="1" as="geometry" />
        </mxCell>
        <mxCell id="iVHjcG8PVR0217KYwo8R-5" style="edgeStyle=orthogonalEdgeStyle;rounded=0;orthogonalLoop=1;jettySize=auto;html=1;exitX=1;exitY=0.75;exitDx=0;exitDy=0;fontSize=18;" edge="1" parent="iVHjcG8PVR0217KYwo8R-1" source="iVHjcG8PVR0217KYwo8R-6" target="iVHjcG8PVR0217KYwo8R-41">
          <mxGeometry relative="1" as="geometry">
            <Array as="points">
              <mxPoint x="1540" y="640" />
            </Array>
          </mxGeometry>
        </mxCell>
        <mxCell id="iVHjcG8PVR0217KYwo8R-6" value="" style="rounded=0;whiteSpace=wrap;html=1;fillColor=#f5f5f5;strokeColor=#666666;fontColor=#333333;fontStyle=1;fontSize=19;" vertex="1" parent="iVHjcG8PVR0217KYwo8R-1">
          <mxGeometry x="840" y="350" width="700" height="305" as="geometry" />
        </mxCell>
        <mxCell id="iVHjcG8PVR0217KYwo8R-7" value="Route Handlers" style="rounded=0;whiteSpace=wrap;html=1;fontSize=19;fillColor=#dae8fc;strokeColor=#6c8ebf;" vertex="1" parent="iVHjcG8PVR0217KYwo8R-1">
          <mxGeometry x="1080" y="362.5" width="220" height="30" as="geometry" />
        </mxCell>
        <mxCell id="iVHjcG8PVR0217KYwo8R-8" value="" style="rounded=0;whiteSpace=wrap;html=1;fontSize=26;fillColor=#dae8fc;strokeColor=#6c8ebf;" vertex="1" parent="iVHjcG8PVR0217KYwo8R-1">
          <mxGeometry x="1080" y="392.5" width="220" height="250" as="geometry" />
        </mxCell>
        <mxCell id="iVHjcG8PVR0217KYwo8R-9" value="signup" style="rounded=0;whiteSpace=wrap;html=1;fontSize=22;" vertex="1" parent="iVHjcG8PVR0217KYwo8R-1">
          <mxGeometry x="1105" y="402.5" width="170" height="50" as="geometry" />
        </mxCell>
        <mxCell id="iVHjcG8PVR0217KYwo8R-10" value="signin" style="rounded=0;whiteSpace=wrap;html=1;fontSize=22;" vertex="1" parent="iVHjcG8PVR0217KYwo8R-1">
          <mxGeometry x="1105" y="462.5" width="170" height="50" as="geometry" />
        </mxCell>
        <mxCell id="iVHjcG8PVR0217KYwo8R-11" value="signout" style="rounded=0;whiteSpace=wrap;html=1;fontSize=22;" vertex="1" parent="iVHjcG8PVR0217KYwo8R-1">
          <mxGeometry x="1105" y="522.5" width="170" height="50" as="geometry" />
        </mxCell>
        <mxCell id="iVHjcG8PVR0217KYwo8R-12" value="current-user" style="rounded=0;whiteSpace=wrap;html=1;fontSize=22;" vertex="1" parent="iVHjcG8PVR0217KYwo8R-1">
          <mxGeometry x="1105" y="582.5" width="170" height="50" as="geometry" />
        </mxCell>
        <mxCell id="iVHjcG8PVR0217KYwo8R-13" value="Middlewares" style="rounded=0;whiteSpace=wrap;html=1;fontSize=19;fillColor=#dae8fc;strokeColor=#6c8ebf;" vertex="1" parent="iVHjcG8PVR0217KYwo8R-1">
          <mxGeometry x="850" y="362.5" width="220" height="30" as="geometry" />
        </mxCell>
        <mxCell id="iVHjcG8PVR0217KYwo8R-14" value="" style="rounded=0;whiteSpace=wrap;html=1;fontSize=19;fillColor=#dae8fc;strokeColor=#6c8ebf;" vertex="1" parent="iVHjcG8PVR0217KYwo8R-1">
          <mxGeometry x="850" y="392.5" width="220" height="130" as="geometry" />
        </mxCell>
        <mxCell id="iVHjcG8PVR0217KYwo8R-15" value="requireAuth" style="rounded=0;whiteSpace=wrap;html=1;fontSize=22;" vertex="1" parent="iVHjcG8PVR0217KYwo8R-1">
          <mxGeometry x="875" y="402.5" width="170" height="50" as="geometry" />
        </mxCell>
        <mxCell id="iVHjcG8PVR0217KYwo8R-16" value="currentUser" style="rounded=0;whiteSpace=wrap;html=1;fontSize=22;" vertex="1" parent="iVHjcG8PVR0217KYwo8R-1">
          <mxGeometry x="875" y="462.5" width="170" height="50" as="geometry" />
        </mxCell>
        <mxCell id="iVHjcG8PVR0217KYwo8R-17" value="Models" style="rounded=0;whiteSpace=wrap;html=1;fontSize=19;fillColor=#dae8fc;strokeColor=#6c8ebf;" vertex="1" parent="iVHjcG8PVR0217KYwo8R-1">
          <mxGeometry x="1310" y="362.5" width="220" height="30" as="geometry" />
        </mxCell>
        <mxCell id="iVHjcG8PVR0217KYwo8R-18" value="" style="rounded=0;whiteSpace=wrap;html=1;fontSize=26;fillColor=#dae8fc;strokeColor=#6c8ebf;" vertex="1" parent="iVHjcG8PVR0217KYwo8R-1">
          <mxGeometry x="1310" y="392.5" width="220" height="80" as="geometry" />
        </mxCell>
        <mxCell id="iVHjcG8PVR0217KYwo8R-19" value="User" style="rounded=0;whiteSpace=wrap;html=1;fontSize=22;" vertex="1" parent="iVHjcG8PVR0217KYwo8R-1">
          <mxGeometry x="1335" y="402.5" width="170" height="50" as="geometry" />
        </mxCell>
        <mxCell id="iVHjcG8PVR0217KYwo8R-20" value="MongoDB for Auth Service" style="rounded=0;whiteSpace=wrap;html=1;fillColor=#f5f5f5;strokeColor=#666666;fontColor=#333333;fontStyle=1;fontSize=24;" vertex="1" parent="iVHjcG8PVR0217KYwo8R-1">
          <mxGeometry x="1580" y="426.25" width="200" height="152.5" as="geometry" />
        </mxCell>
        <mxCell id="iVHjcG8PVR0217KYwo8R-21" style="edgeStyle=orthogonalEdgeStyle;rounded=0;orthogonalLoop=1;jettySize=auto;html=1;exitX=1;exitY=0.5;exitDx=0;exitDy=0;entryX=0;entryY=0.5;entryDx=0;entryDy=0;fontSize=22;" edge="1" parent="iVHjcG8PVR0217KYwo8R-1" source="iVHjcG8PVR0217KYwo8R-25" target="iVHjcG8PVR0217KYwo8R-6">
          <mxGeometry relative="1" as="geometry" />
        </mxCell>
        <mxCell id="iVHjcG8PVR0217KYwo8R-22" style="edgeStyle=orthogonalEdgeStyle;rounded=0;orthogonalLoop=1;jettySize=auto;html=1;exitX=1;exitY=0.5;exitDx=0;exitDy=0;fontSize=22;" edge="1" parent="iVHjcG8PVR0217KYwo8R-1" source="iVHjcG8PVR0217KYwo8R-25" target="iVHjcG8PVR0217KYwo8R-29">
          <mxGeometry relative="1" as="geometry" />
        </mxCell>
        <mxCell id="iVHjcG8PVR0217KYwo8R-23" style="edgeStyle=orthogonalEdgeStyle;rounded=0;orthogonalLoop=1;jettySize=auto;html=1;exitX=1;exitY=0.5;exitDx=0;exitDy=0;entryX=0;entryY=0.5;entryDx=0;entryDy=0;fontSize=22;" edge="1" parent="iVHjcG8PVR0217KYwo8R-1" source="iVHjcG8PVR0217KYwo8R-25" target="iVHjcG8PVR0217KYwo8R-32">
          <mxGeometry relative="1" as="geometry" />
        </mxCell>
        <mxCell id="iVHjcG8PVR0217KYwo8R-24" style="edgeStyle=orthogonalEdgeStyle;rounded=0;orthogonalLoop=1;jettySize=auto;html=1;exitX=1;exitY=0.5;exitDx=0;exitDy=0;entryX=0;entryY=0.5;entryDx=0;entryDy=0;fontSize=22;" edge="1" parent="iVHjcG8PVR0217KYwo8R-1" source="iVHjcG8PVR0217KYwo8R-25" target="iVHjcG8PVR0217KYwo8R-35">
          <mxGeometry relative="1" as="geometry" />
        </mxCell>
        <mxCell id="iVHjcG8PVR0217KYwo8R-25" value="Ingress-Nginx" style="rounded=0;whiteSpace=wrap;html=1;fillColor=#f5f5f5;strokeColor=#666666;fontColor=#333333;fontStyle=1;fontSize=24;" vertex="1" parent="iVHjcG8PVR0217KYwo8R-1">
          <mxGeometry x="480" y="665" width="220" height="107.5" as="geometry" />
        </mxCell>
        <mxCell id="iVHjcG8PVR0217KYwo8R-26" style="edgeStyle=orthogonalEdgeStyle;rounded=0;orthogonalLoop=1;jettySize=auto;html=1;exitX=1;exitY=0.5;exitDx=0;exitDy=0;fontSize=18;" edge="1" parent="iVHjcG8PVR0217KYwo8R-1" source="iVHjcG8PVR0217KYwo8R-27" target="iVHjcG8PVR0217KYwo8R-36">
          <mxGeometry relative="1" as="geometry" />
        </mxCell>
        <mxCell id="iVHjcG8PVR0217KYwo8R-27" value="Orders Service" style="rounded=0;whiteSpace=wrap;html=1;fillColor=#f5f5f5;strokeColor=#666666;fontColor=#333333;fontStyle=1;fontSize=22;" vertex="1" parent="iVHjcG8PVR0217KYwo8R-1">
          <mxGeometry x="840" y="685" width="700" height="35" as="geometry" />
        </mxCell>
        <mxCell id="iVHjcG8PVR0217KYwo8R-28" style="edgeStyle=orthogonalEdgeStyle;rounded=0;orthogonalLoop=1;jettySize=auto;html=1;exitX=1;exitY=0.75;exitDx=0;exitDy=0;entryX=-0.021;entryY=0.684;entryDx=0;entryDy=0;entryPerimeter=0;fontSize=18;" edge="1" parent="iVHjcG8PVR0217KYwo8R-1" source="iVHjcG8PVR0217KYwo8R-29" target="iVHjcG8PVR0217KYwo8R-41">
          <mxGeometry relative="1" as="geometry" />
        </mxCell>
        <mxCell id="iVHjcG8PVR0217KYwo8R-29" value="" style="rounded=0;whiteSpace=wrap;html=1;fillColor=#f5f5f5;strokeColor=#666666;fontColor=#333333;fontStyle=1;fontSize=19;" vertex="1" parent="iVHjcG8PVR0217KYwo8R-1">
          <mxGeometry x="840" y="720" width="700" height="45" as="geometry" />
        </mxCell>
        <mxCell id="iVHjcG8PVR0217KYwo8R-30" value="Ticketing Service" style="rounded=0;whiteSpace=wrap;html=1;fillColor=#f5f5f5;strokeColor=#666666;fontColor=#333333;fontStyle=1;fontSize=22;" vertex="1" parent="iVHjcG8PVR0217KYwo8R-1">
          <mxGeometry x="840" y="785" width="700" height="35" as="geometry" />
        </mxCell>
        <mxCell id="iVHjcG8PVR0217KYwo8R-31" style="edgeStyle=orthogonalEdgeStyle;rounded=0;orthogonalLoop=1;jettySize=auto;html=1;exitX=1;exitY=0.75;exitDx=0;exitDy=0;entryX=-0.007;entryY=0.846;entryDx=0;entryDy=0;entryPerimeter=0;fontSize=18;" edge="1" parent="iVHjcG8PVR0217KYwo8R-1" source="iVHjcG8PVR0217KYwo8R-32" target="iVHjcG8PVR0217KYwo8R-41">
          <mxGeometry relative="1" as="geometry" />
        </mxCell>
        <mxCell id="iVHjcG8PVR0217KYwo8R-32" value="" style="rounded=0;whiteSpace=wrap;html=1;fillColor=#f5f5f5;strokeColor=#666666;fontColor=#333333;fontStyle=1;fontSize=19;" vertex="1" parent="iVHjcG8PVR0217KYwo8R-1">
          <mxGeometry x="840" y="820" width="700" height="45" as="geometry" />
        </mxCell>
        <mxCell id="iVHjcG8PVR0217KYwo8R-33" value="Payments Service" style="rounded=0;whiteSpace=wrap;html=1;fillColor=#f5f5f5;strokeColor=#666666;fontColor=#333333;fontStyle=1;fontSize=22;" vertex="1" parent="iVHjcG8PVR0217KYwo8R-1">
          <mxGeometry x="840" y="885" width="700" height="35" as="geometry" />
        </mxCell>
        <mxCell id="iVHjcG8PVR0217KYwo8R-34" style="edgeStyle=orthogonalEdgeStyle;rounded=0;orthogonalLoop=1;jettySize=auto;html=1;exitX=1;exitY=0.75;exitDx=0;exitDy=0;entryX=-0.021;entryY=0.987;entryDx=0;entryDy=0;entryPerimeter=0;fontSize=18;" edge="1" parent="iVHjcG8PVR0217KYwo8R-1" source="iVHjcG8PVR0217KYwo8R-35" target="iVHjcG8PVR0217KYwo8R-41">
          <mxGeometry relative="1" as="geometry" />
        </mxCell>
        <mxCell id="iVHjcG8PVR0217KYwo8R-35" value="" style="rounded=0;whiteSpace=wrap;html=1;fillColor=#f5f5f5;strokeColor=#666666;fontColor=#333333;fontStyle=1;fontSize=19;" vertex="1" parent="iVHjcG8PVR0217KYwo8R-1">
          <mxGeometry x="840" y="920" width="700" height="45" as="geometry" />
        </mxCell>
        <mxCell id="iVHjcG8PVR0217KYwo8R-36" value="MongoDB for Orders Service" style="rounded=0;whiteSpace=wrap;html=1;fillColor=#f5f5f5;strokeColor=#666666;fontColor=#333333;fontStyle=1;fontSize=18;" vertex="1" parent="iVHjcG8PVR0217KYwo8R-1">
          <mxGeometry x="1580" y="685" width="200" height="62.5" as="geometry" />
        </mxCell>
        <mxCell id="iVHjcG8PVR0217KYwo8R-37" style="edgeStyle=orthogonalEdgeStyle;rounded=0;orthogonalLoop=1;jettySize=auto;html=1;exitX=1;exitY=0.5;exitDx=0;exitDy=0;fontSize=18;" edge="1" parent="iVHjcG8PVR0217KYwo8R-1" target="iVHjcG8PVR0217KYwo8R-38">
          <mxGeometry relative="1" as="geometry">
            <mxPoint x="1540" y="802.5" as="sourcePoint" />
          </mxGeometry>
        </mxCell>
        <mxCell id="iVHjcG8PVR0217KYwo8R-38" value="MongoDB for Orders Service" style="rounded=0;whiteSpace=wrap;html=1;fillColor=#f5f5f5;strokeColor=#666666;fontColor=#333333;fontStyle=1;fontSize=18;" vertex="1" parent="iVHjcG8PVR0217KYwo8R-1">
          <mxGeometry x="1580" y="785" width="200" height="62.5" as="geometry" />
        </mxCell>
        <mxCell id="iVHjcG8PVR0217KYwo8R-39" style="edgeStyle=orthogonalEdgeStyle;rounded=0;orthogonalLoop=1;jettySize=auto;html=1;exitX=1;exitY=0.5;exitDx=0;exitDy=0;fontSize=18;" edge="1" parent="iVHjcG8PVR0217KYwo8R-1" target="iVHjcG8PVR0217KYwo8R-40">
          <mxGeometry relative="1" as="geometry">
            <mxPoint x="1540" y="902.5" as="sourcePoint" />
          </mxGeometry>
        </mxCell>
        <mxCell id="iVHjcG8PVR0217KYwo8R-40" value="MongoDB for Orders Service" style="rounded=0;whiteSpace=wrap;html=1;fillColor=#f5f5f5;strokeColor=#666666;fontColor=#333333;fontStyle=1;fontSize=18;" vertex="1" parent="iVHjcG8PVR0217KYwo8R-1">
          <mxGeometry x="1580" y="885" width="200" height="62.5" as="geometry" />
        </mxCell>
        <mxCell id="iVHjcG8PVR0217KYwo8R-41" value="Event Bus" style="rounded=0;whiteSpace=wrap;html=1;fillColor=#d5e8d4;strokeColor=#82b366;fontStyle=1;fontSize=24;" vertex="1" parent="iVHjcG8PVR0217KYwo8R-1">
          <mxGeometry x="1820" y="315" width="150" height="650" as="geometry" />
        </mxCell>
        <mxCell id="iVHjcG8PVR0217KYwo8R-42" value="&lt;b style=&quot;font-size: 33px;&quot;&gt;Kubernetes&lt;/b&gt;" style="text;html=1;strokeColor=none;fillColor=none;align=center;verticalAlign=middle;whiteSpace=wrap;rounded=0;fontSize=33;" vertex="1" parent="iVHjcG8PVR0217KYwo8R-1">
          <mxGeometry x="460" y="305" width="200" height="50" as="geometry" />
        </mxCell>
        <mxCell id="iVHjcG8PVR0217KYwo8R-43" value="" style="rounded=0;whiteSpace=wrap;html=1;fontSize=33;fillColor=none;strokeColor=#FF0000;strokeWidth=4;dashed=1;dashPattern=1 1;perimeterSpacing=9;" vertex="1" parent="iVHjcG8PVR0217KYwo8R-1">
          <mxGeometry x="830" y="670" width="1020" height="212.5" as="geometry" />
        </mxCell>
      </root>
    </mxGraphModel>
  </diagram>
  <diagram id="cMCQRq2OYotwXK_45sfS" name="05 - strat">
    <mxGraphModel dx="1202" dy="591" grid="1" gridSize="10" guides="1" tooltips="1" connect="1" arrows="1" fold="1" page="1" pageScale="1" pageWidth="1920" pageHeight="1200" math="0" shadow="0">
      <root>
        <mxCell id="xxSlX4tVeZCZssJBDrvl-0" />
        <mxCell id="xxSlX4tVeZCZssJBDrvl-1" parent="xxSlX4tVeZCZssJBDrvl-0" />
        <mxCell id="g7Zo7nX3SYY9JxOo4sCo-0" value="Auth Service" style="rounded=0;whiteSpace=wrap;html=1;fillColor=#f5f5f5;strokeColor=#666666;fontColor=#333333;fontStyle=1;fontSize=22;" vertex="1" parent="xxSlX4tVeZCZssJBDrvl-1">
          <mxGeometry x="340" y="240" width="700" height="35" as="geometry" />
        </mxCell>
        <mxCell id="g7Zo7nX3SYY9JxOo4sCo-1" style="edgeStyle=orthogonalEdgeStyle;rounded=0;orthogonalLoop=1;jettySize=auto;html=1;exitX=1;exitY=0.5;exitDx=0;exitDy=0;fontSize=24;" edge="1" parent="xxSlX4tVeZCZssJBDrvl-1" source="g7Zo7nX3SYY9JxOo4sCo-2" target="g7Zo7nX3SYY9JxOo4sCo-16">
          <mxGeometry relative="1" as="geometry" />
        </mxCell>
        <mxCell id="g7Zo7nX3SYY9JxOo4sCo-2" value="" style="rounded=0;whiteSpace=wrap;html=1;fillColor=#f5f5f5;strokeColor=#666666;fontColor=#333333;fontStyle=1;fontSize=19;" vertex="1" parent="xxSlX4tVeZCZssJBDrvl-1">
          <mxGeometry x="340" y="275" width="700" height="305" as="geometry" />
        </mxCell>
        <mxCell id="g7Zo7nX3SYY9JxOo4sCo-3" value="Route Handlers" style="rounded=0;whiteSpace=wrap;html=1;fontSize=19;fillColor=#dae8fc;strokeColor=#6c8ebf;" vertex="1" parent="xxSlX4tVeZCZssJBDrvl-1">
          <mxGeometry x="580" y="287.5" width="220" height="30" as="geometry" />
        </mxCell>
        <mxCell id="g7Zo7nX3SYY9JxOo4sCo-4" value="" style="rounded=0;whiteSpace=wrap;html=1;fontSize=26;fillColor=#dae8fc;strokeColor=#6c8ebf;" vertex="1" parent="xxSlX4tVeZCZssJBDrvl-1">
          <mxGeometry x="580" y="317.5" width="220" height="250" as="geometry" />
        </mxCell>
        <mxCell id="g7Zo7nX3SYY9JxOo4sCo-5" value="signup" style="rounded=0;whiteSpace=wrap;html=1;fontSize=22;" vertex="1" parent="xxSlX4tVeZCZssJBDrvl-1">
          <mxGeometry x="605" y="327.5" width="170" height="50" as="geometry" />
        </mxCell>
        <mxCell id="g7Zo7nX3SYY9JxOo4sCo-6" value="signin" style="rounded=0;whiteSpace=wrap;html=1;fontSize=22;" vertex="1" parent="xxSlX4tVeZCZssJBDrvl-1">
          <mxGeometry x="605" y="387.5" width="170" height="50" as="geometry" />
        </mxCell>
        <mxCell id="g7Zo7nX3SYY9JxOo4sCo-7" value="signout" style="rounded=0;whiteSpace=wrap;html=1;fontSize=22;" vertex="1" parent="xxSlX4tVeZCZssJBDrvl-1">
          <mxGeometry x="605" y="447.5" width="170" height="50" as="geometry" />
        </mxCell>
        <mxCell id="g7Zo7nX3SYY9JxOo4sCo-8" value="current-user" style="rounded=0;whiteSpace=wrap;html=1;fontSize=22;" vertex="1" parent="xxSlX4tVeZCZssJBDrvl-1">
          <mxGeometry x="605" y="507.5" width="170" height="50" as="geometry" />
        </mxCell>
        <mxCell id="g7Zo7nX3SYY9JxOo4sCo-9" value="Middlewares" style="rounded=0;whiteSpace=wrap;html=1;fontSize=19;fillColor=#dae8fc;strokeColor=#6c8ebf;" vertex="1" parent="xxSlX4tVeZCZssJBDrvl-1">
          <mxGeometry x="350" y="287.5" width="220" height="30" as="geometry" />
        </mxCell>
        <mxCell id="g7Zo7nX3SYY9JxOo4sCo-10" value="" style="rounded=0;whiteSpace=wrap;html=1;fontSize=19;fillColor=#dae8fc;strokeColor=#6c8ebf;" vertex="1" parent="xxSlX4tVeZCZssJBDrvl-1">
          <mxGeometry x="350" y="317.5" width="220" height="130" as="geometry" />
        </mxCell>
        <mxCell id="g7Zo7nX3SYY9JxOo4sCo-11" value="requireAuth" style="rounded=0;whiteSpace=wrap;html=1;fontSize=22;" vertex="1" parent="xxSlX4tVeZCZssJBDrvl-1">
          <mxGeometry x="375" y="327.5" width="170" height="50" as="geometry" />
        </mxCell>
        <mxCell id="g7Zo7nX3SYY9JxOo4sCo-12" value="currentUser" style="rounded=0;whiteSpace=wrap;html=1;fontSize=22;" vertex="1" parent="xxSlX4tVeZCZssJBDrvl-1">
          <mxGeometry x="375" y="387.5" width="170" height="50" as="geometry" />
        </mxCell>
        <mxCell id="g7Zo7nX3SYY9JxOo4sCo-13" value="Models" style="rounded=0;whiteSpace=wrap;html=1;fontSize=19;fillColor=#dae8fc;strokeColor=#6c8ebf;" vertex="1" parent="xxSlX4tVeZCZssJBDrvl-1">
          <mxGeometry x="810" y="287.5" width="220" height="30" as="geometry" />
        </mxCell>
        <mxCell id="g7Zo7nX3SYY9JxOo4sCo-14" value="" style="rounded=0;whiteSpace=wrap;html=1;fontSize=26;fillColor=#dae8fc;strokeColor=#6c8ebf;" vertex="1" parent="xxSlX4tVeZCZssJBDrvl-1">
          <mxGeometry x="810" y="317.5" width="220" height="80" as="geometry" />
        </mxCell>
        <mxCell id="g7Zo7nX3SYY9JxOo4sCo-15" value="User" style="rounded=0;whiteSpace=wrap;html=1;fontSize=22;" vertex="1" parent="xxSlX4tVeZCZssJBDrvl-1">
          <mxGeometry x="835" y="327.5" width="170" height="50" as="geometry" />
        </mxCell>
        <mxCell id="g7Zo7nX3SYY9JxOo4sCo-16" value="MongoDB for Auth Service" style="rounded=0;whiteSpace=wrap;html=1;fillColor=#f5f5f5;strokeColor=#666666;fontColor=#333333;fontStyle=1;fontSize=24;" vertex="1" parent="xxSlX4tVeZCZssJBDrvl-1">
          <mxGeometry x="1080" y="351.25" width="200" height="152.5" as="geometry" />
        </mxCell>
        <mxCell id="Cog4MBiMth9xAZ8DVMUC-0" value="Basic Request Handling" style="rounded=0;whiteSpace=wrap;html=1;strokeWidth=1;fontSize=39;align=center;fillColor=#f8cecc;strokeColor=#b85450;fontStyle=1" vertex="1" parent="xxSlX4tVeZCZssJBDrvl-1">
          <mxGeometry x="380" y="130" width="740" height="60" as="geometry" />
        </mxCell>
        <mxCell id="Cog4MBiMth9xAZ8DVMUC-1" value="Testing Goal #1" style="rounded=0;whiteSpace=wrap;html=1;strokeWidth=1;fontSize=26;align=center;fillColor=#f8cecc;strokeColor=#b85450;fontStyle=1" vertex="1" parent="xxSlX4tVeZCZssJBDrvl-1">
          <mxGeometry x="380" y="90" width="740" height="40" as="geometry" />
        </mxCell>
        <mxCell id="Cog4MBiMth9xAZ8DVMUC-3" style="edgeStyle=orthogonalEdgeStyle;rounded=0;orthogonalLoop=1;jettySize=auto;html=1;exitX=1;exitY=0.5;exitDx=0;exitDy=0;entryX=0;entryY=0.5;entryDx=0;entryDy=0;fontSize=26;" edge="1" parent="xxSlX4tVeZCZssJBDrvl-1" source="Cog4MBiMth9xAZ8DVMUC-2" target="g7Zo7nX3SYY9JxOo4sCo-2">
          <mxGeometry relative="1" as="geometry" />
        </mxCell>
        <mxCell id="Cog4MBiMth9xAZ8DVMUC-2" value="Request to signup" style="rounded=0;whiteSpace=wrap;html=1;strokeWidth=1;fontSize=26;align=center;fillColor=#dae8fc;strokeColor=#6c8ebf;" vertex="1" parent="xxSlX4tVeZCZssJBDrvl-1">
          <mxGeometry x="110" y="387.5" width="170" height="80" as="geometry" />
        </mxCell>
        <mxCell id="ELSe0zkx71BAbsgDyqk7-0" value="" style="rounded=0;whiteSpace=wrap;html=1;fontSize=33;fillColor=none;strokeColor=#FF0000;strokeWidth=4;dashed=1;dashPattern=1 1;perimeterSpacing=9;" vertex="1" parent="xxSlX4tVeZCZssJBDrvl-1">
          <mxGeometry x="95" y="281.25" width="1195" height="318.75" as="geometry" />
        </mxCell>
      </root>
    </mxGraphModel>
  </diagram>
  <diagram name="06 - t" id="5bnbQfYXD5ktwlAnJRQm">
    <mxGraphModel dx="1155" dy="568" grid="1" gridSize="10" guides="1" tooltips="1" connect="1" arrows="1" fold="1" page="1" pageScale="1" pageWidth="1920" pageHeight="1200" math="0" shadow="0">
      <root>
        <mxCell id="C_-iCNGLrV2iynP8-zIb-0" />
        <mxCell id="C_-iCNGLrV2iynP8-zIb-1" parent="C_-iCNGLrV2iynP8-zIb-0" />
        <mxCell id="C_-iCNGLrV2iynP8-zIb-2" value="Auth Service" style="rounded=0;whiteSpace=wrap;html=1;fillColor=#f5f5f5;strokeColor=#666666;fontColor=#333333;fontStyle=1;fontSize=22;" vertex="1" parent="C_-iCNGLrV2iynP8-zIb-1">
          <mxGeometry x="340" y="240" width="700" height="35" as="geometry" />
        </mxCell>
        <mxCell id="C_-iCNGLrV2iynP8-zIb-3" style="edgeStyle=orthogonalEdgeStyle;rounded=0;orthogonalLoop=1;jettySize=auto;html=1;exitX=1;exitY=0.5;exitDx=0;exitDy=0;fontSize=24;" edge="1" parent="C_-iCNGLrV2iynP8-zIb-1" source="C_-iCNGLrV2iynP8-zIb-4" target="C_-iCNGLrV2iynP8-zIb-18">
          <mxGeometry relative="1" as="geometry" />
        </mxCell>
        <mxCell id="C_-iCNGLrV2iynP8-zIb-4" value="" style="rounded=0;whiteSpace=wrap;html=1;fillColor=#f5f5f5;strokeColor=#666666;fontColor=#333333;fontStyle=1;fontSize=19;" vertex="1" parent="C_-iCNGLrV2iynP8-zIb-1">
          <mxGeometry x="340" y="275" width="700" height="305" as="geometry" />
        </mxCell>
        <mxCell id="C_-iCNGLrV2iynP8-zIb-5" value="Route Handlers" style="rounded=0;whiteSpace=wrap;html=1;fontSize=19;fillColor=#dae8fc;strokeColor=#6c8ebf;" vertex="1" parent="C_-iCNGLrV2iynP8-zIb-1">
          <mxGeometry x="580" y="287.5" width="220" height="30" as="geometry" />
        </mxCell>
        <mxCell id="C_-iCNGLrV2iynP8-zIb-6" value="" style="rounded=0;whiteSpace=wrap;html=1;fontSize=26;fillColor=#dae8fc;strokeColor=#6c8ebf;" vertex="1" parent="C_-iCNGLrV2iynP8-zIb-1">
          <mxGeometry x="580" y="317.5" width="220" height="250" as="geometry" />
        </mxCell>
        <mxCell id="C_-iCNGLrV2iynP8-zIb-7" value="signup" style="rounded=0;whiteSpace=wrap;html=1;fontSize=22;" vertex="1" parent="C_-iCNGLrV2iynP8-zIb-1">
          <mxGeometry x="605" y="327.5" width="170" height="50" as="geometry" />
        </mxCell>
        <mxCell id="C_-iCNGLrV2iynP8-zIb-8" value="signin" style="rounded=0;whiteSpace=wrap;html=1;fontSize=22;" vertex="1" parent="C_-iCNGLrV2iynP8-zIb-1">
          <mxGeometry x="605" y="387.5" width="170" height="50" as="geometry" />
        </mxCell>
        <mxCell id="C_-iCNGLrV2iynP8-zIb-9" value="signout" style="rounded=0;whiteSpace=wrap;html=1;fontSize=22;" vertex="1" parent="C_-iCNGLrV2iynP8-zIb-1">
          <mxGeometry x="605" y="447.5" width="170" height="50" as="geometry" />
        </mxCell>
        <mxCell id="C_-iCNGLrV2iynP8-zIb-10" value="current-user" style="rounded=0;whiteSpace=wrap;html=1;fontSize=22;" vertex="1" parent="C_-iCNGLrV2iynP8-zIb-1">
          <mxGeometry x="605" y="507.5" width="170" height="50" as="geometry" />
        </mxCell>
        <mxCell id="C_-iCNGLrV2iynP8-zIb-11" value="Middlewares" style="rounded=0;whiteSpace=wrap;html=1;fontSize=19;fillColor=#dae8fc;strokeColor=#6c8ebf;" vertex="1" parent="C_-iCNGLrV2iynP8-zIb-1">
          <mxGeometry x="350" y="287.5" width="220" height="30" as="geometry" />
        </mxCell>
        <mxCell id="C_-iCNGLrV2iynP8-zIb-12" value="" style="rounded=0;whiteSpace=wrap;html=1;fontSize=19;fillColor=#dae8fc;strokeColor=#6c8ebf;" vertex="1" parent="C_-iCNGLrV2iynP8-zIb-1">
          <mxGeometry x="350" y="317.5" width="220" height="130" as="geometry" />
        </mxCell>
        <mxCell id="C_-iCNGLrV2iynP8-zIb-13" value="requireAuth" style="rounded=0;whiteSpace=wrap;html=1;fontSize=22;" vertex="1" parent="C_-iCNGLrV2iynP8-zIb-1">
          <mxGeometry x="375" y="327.5" width="170" height="50" as="geometry" />
        </mxCell>
        <mxCell id="C_-iCNGLrV2iynP8-zIb-14" value="currentUser" style="rounded=0;whiteSpace=wrap;html=1;fontSize=22;" vertex="1" parent="C_-iCNGLrV2iynP8-zIb-1">
          <mxGeometry x="375" y="387.5" width="170" height="50" as="geometry" />
        </mxCell>
        <mxCell id="C_-iCNGLrV2iynP8-zIb-15" value="Models" style="rounded=0;whiteSpace=wrap;html=1;fontSize=19;fillColor=#dae8fc;strokeColor=#6c8ebf;" vertex="1" parent="C_-iCNGLrV2iynP8-zIb-1">
          <mxGeometry x="810" y="287.5" width="220" height="30" as="geometry" />
        </mxCell>
        <mxCell id="C_-iCNGLrV2iynP8-zIb-16" value="" style="rounded=0;whiteSpace=wrap;html=1;fontSize=26;fillColor=#dae8fc;strokeColor=#6c8ebf;" vertex="1" parent="C_-iCNGLrV2iynP8-zIb-1">
          <mxGeometry x="810" y="317.5" width="220" height="80" as="geometry" />
        </mxCell>
        <mxCell id="C_-iCNGLrV2iynP8-zIb-17" value="User" style="rounded=0;whiteSpace=wrap;html=1;fontSize=22;" vertex="1" parent="C_-iCNGLrV2iynP8-zIb-1">
          <mxGeometry x="835" y="327.5" width="170" height="50" as="geometry" />
        </mxCell>
        <mxCell id="C_-iCNGLrV2iynP8-zIb-18" value="MongoDB for Auth Service" style="rounded=0;whiteSpace=wrap;html=1;fillColor=#f5f5f5;strokeColor=#666666;fontColor=#333333;fontStyle=1;fontSize=24;" vertex="1" parent="C_-iCNGLrV2iynP8-zIb-1">
          <mxGeometry x="1080" y="351.25" width="200" height="152.5" as="geometry" />
        </mxCell>
        <mxCell id="C_-iCNGLrV2iynP8-zIb-19" value="Some tests around models" style="rounded=0;whiteSpace=wrap;html=1;strokeWidth=1;fontSize=39;align=center;fillColor=#f8cecc;strokeColor=#b85450;fontStyle=1" vertex="1" parent="C_-iCNGLrV2iynP8-zIb-1">
          <mxGeometry x="530" y="140" width="740" height="60" as="geometry" />
        </mxCell>
        <mxCell id="C_-iCNGLrV2iynP8-zIb-20" value="Testing Goal #2" style="rounded=0;whiteSpace=wrap;html=1;strokeWidth=1;fontSize=26;align=center;fillColor=#f8cecc;strokeColor=#b85450;fontStyle=1" vertex="1" parent="C_-iCNGLrV2iynP8-zIb-1">
          <mxGeometry x="530" y="100" width="740" height="40" as="geometry" />
        </mxCell>
        <mxCell id="XFo7LMVv7yBYCjYVPQ6o-0" value="" style="rounded=0;whiteSpace=wrap;html=1;fontSize=33;fillColor=none;strokeColor=#FF0000;strokeWidth=4;dashed=1;dashPattern=1 1;perimeterSpacing=9;" vertex="1" parent="C_-iCNGLrV2iynP8-zIb-1">
          <mxGeometry x="820" y="320" width="200" height="70" as="geometry" />
        </mxCell>
      </root>
    </mxGraphModel>
  </diagram>
  <diagram name="07 - three" id="hxrrPsD0PgPvhsGfWoaf">
    <mxGraphModel dx="1252" dy="616" grid="1" gridSize="10" guides="1" tooltips="1" connect="1" arrows="1" fold="1" page="1" pageScale="1" pageWidth="1920" pageHeight="1200" math="0" shadow="0">
      <root>
        <mxCell id="R79hDYC7A3R0rNlAy6Wh-0" />
        <mxCell id="R79hDYC7A3R0rNlAy6Wh-1" parent="R79hDYC7A3R0rNlAy6Wh-0" />
        <mxCell id="R79hDYC7A3R0rNlAy6Wh-2" value="Auth Service" style="rounded=0;whiteSpace=wrap;html=1;fillColor=#f5f5f5;strokeColor=#666666;fontColor=#333333;fontStyle=1;fontSize=22;" vertex="1" parent="R79hDYC7A3R0rNlAy6Wh-1">
          <mxGeometry x="340" y="240" width="700" height="35" as="geometry" />
        </mxCell>
        <mxCell id="R79hDYC7A3R0rNlAy6Wh-3" style="edgeStyle=orthogonalEdgeStyle;rounded=0;orthogonalLoop=1;jettySize=auto;html=1;exitX=1;exitY=0.5;exitDx=0;exitDy=0;fontSize=24;" edge="1" parent="R79hDYC7A3R0rNlAy6Wh-1" target="R79hDYC7A3R0rNlAy6Wh-18">
          <mxGeometry relative="1" as="geometry">
            <mxPoint x="1030" y="326.25" as="sourcePoint" />
          </mxGeometry>
        </mxCell>
        <mxCell id="R79hDYC7A3R0rNlAy6Wh-4" value="" style="rounded=0;whiteSpace=wrap;html=1;fillColor=#f5f5f5;strokeColor=#666666;fontColor=#333333;fontStyle=1;fontSize=19;" vertex="1" parent="R79hDYC7A3R0rNlAy6Wh-1">
          <mxGeometry x="340" y="275" width="700" height="305" as="geometry" />
        </mxCell>
        <mxCell id="R79hDYC7A3R0rNlAy6Wh-5" value="Route Handlers" style="rounded=0;whiteSpace=wrap;html=1;fontSize=19;fillColor=#dae8fc;strokeColor=#6c8ebf;" vertex="1" parent="R79hDYC7A3R0rNlAy6Wh-1">
          <mxGeometry x="580" y="287.5" width="220" height="30" as="geometry" />
        </mxCell>
        <mxCell id="R79hDYC7A3R0rNlAy6Wh-6" value="" style="rounded=0;whiteSpace=wrap;html=1;fontSize=26;fillColor=#dae8fc;strokeColor=#6c8ebf;" vertex="1" parent="R79hDYC7A3R0rNlAy6Wh-1">
          <mxGeometry x="580" y="317.5" width="220" height="250" as="geometry" />
        </mxCell>
        <mxCell id="R79hDYC7A3R0rNlAy6Wh-7" value="signup" style="rounded=0;whiteSpace=wrap;html=1;fontSize=22;" vertex="1" parent="R79hDYC7A3R0rNlAy6Wh-1">
          <mxGeometry x="605" y="327.5" width="170" height="50" as="geometry" />
        </mxCell>
        <mxCell id="R79hDYC7A3R0rNlAy6Wh-8" value="signin" style="rounded=0;whiteSpace=wrap;html=1;fontSize=22;" vertex="1" parent="R79hDYC7A3R0rNlAy6Wh-1">
          <mxGeometry x="605" y="387.5" width="170" height="50" as="geometry" />
        </mxCell>
        <mxCell id="R79hDYC7A3R0rNlAy6Wh-9" value="signout" style="rounded=0;whiteSpace=wrap;html=1;fontSize=22;" vertex="1" parent="R79hDYC7A3R0rNlAy6Wh-1">
          <mxGeometry x="605" y="447.5" width="170" height="50" as="geometry" />
        </mxCell>
        <mxCell id="R79hDYC7A3R0rNlAy6Wh-10" value="current-user" style="rounded=0;whiteSpace=wrap;html=1;fontSize=22;" vertex="1" parent="R79hDYC7A3R0rNlAy6Wh-1">
          <mxGeometry x="605" y="507.5" width="170" height="50" as="geometry" />
        </mxCell>
        <mxCell id="R79hDYC7A3R0rNlAy6Wh-11" value="Middlewares" style="rounded=0;whiteSpace=wrap;html=1;fontSize=19;fillColor=#dae8fc;strokeColor=#6c8ebf;" vertex="1" parent="R79hDYC7A3R0rNlAy6Wh-1">
          <mxGeometry x="350" y="287.5" width="220" height="30" as="geometry" />
        </mxCell>
        <mxCell id="R79hDYC7A3R0rNlAy6Wh-12" value="" style="rounded=0;whiteSpace=wrap;html=1;fontSize=19;fillColor=#dae8fc;strokeColor=#6c8ebf;" vertex="1" parent="R79hDYC7A3R0rNlAy6Wh-1">
          <mxGeometry x="350" y="317.5" width="220" height="130" as="geometry" />
        </mxCell>
        <mxCell id="R79hDYC7A3R0rNlAy6Wh-13" value="requireAuth" style="rounded=0;whiteSpace=wrap;html=1;fontSize=22;" vertex="1" parent="R79hDYC7A3R0rNlAy6Wh-1">
          <mxGeometry x="375" y="327.5" width="170" height="50" as="geometry" />
        </mxCell>
        <mxCell id="R79hDYC7A3R0rNlAy6Wh-14" value="currentUser" style="rounded=0;whiteSpace=wrap;html=1;fontSize=22;" vertex="1" parent="R79hDYC7A3R0rNlAy6Wh-1">
          <mxGeometry x="375" y="387.5" width="170" height="50" as="geometry" />
        </mxCell>
        <mxCell id="R79hDYC7A3R0rNlAy6Wh-15" value="Models" style="rounded=0;whiteSpace=wrap;html=1;fontSize=19;fillColor=#dae8fc;strokeColor=#6c8ebf;" vertex="1" parent="R79hDYC7A3R0rNlAy6Wh-1">
          <mxGeometry x="810" y="287.5" width="220" height="30" as="geometry" />
        </mxCell>
        <mxCell id="R79hDYC7A3R0rNlAy6Wh-16" value="" style="rounded=0;whiteSpace=wrap;html=1;fontSize=26;fillColor=#dae8fc;strokeColor=#6c8ebf;" vertex="1" parent="R79hDYC7A3R0rNlAy6Wh-1">
          <mxGeometry x="810" y="317.5" width="220" height="80" as="geometry" />
        </mxCell>
        <mxCell id="R79hDYC7A3R0rNlAy6Wh-17" value="User" style="rounded=0;whiteSpace=wrap;html=1;fontSize=22;" vertex="1" parent="R79hDYC7A3R0rNlAy6Wh-1">
          <mxGeometry x="835" y="327.5" width="170" height="50" as="geometry" />
        </mxCell>
        <mxCell id="R79hDYC7A3R0rNlAy6Wh-18" value="MongoDB for Auth Service" style="rounded=0;whiteSpace=wrap;html=1;fillColor=#f5f5f5;strokeColor=#666666;fontColor=#333333;fontStyle=1;fontSize=24;" vertex="1" parent="R79hDYC7A3R0rNlAy6Wh-1">
          <mxGeometry x="1070" y="250" width="200" height="152.5" as="geometry" />
        </mxCell>
        <mxCell id="R79hDYC7A3R0rNlAy6Wh-19" value="Event emitting + receiving" style="rounded=0;whiteSpace=wrap;html=1;strokeWidth=1;fontSize=39;align=center;fillColor=#f8cecc;strokeColor=#b85450;fontStyle=1" vertex="1" parent="R79hDYC7A3R0rNlAy6Wh-1">
          <mxGeometry x="530" y="140" width="740" height="60" as="geometry" />
        </mxCell>
        <mxCell id="R79hDYC7A3R0rNlAy6Wh-20" value="Testing Goal #3" style="rounded=0;whiteSpace=wrap;html=1;strokeWidth=1;fontSize=26;align=center;fillColor=#f8cecc;strokeColor=#b85450;fontStyle=1" vertex="1" parent="R79hDYC7A3R0rNlAy6Wh-1">
          <mxGeometry x="530" y="100" width="740" height="40" as="geometry" />
        </mxCell>
        <mxCell id="3Basyrr1OBcyb5jCal7Y-0" value="Incoming Event" style="rounded=0;whiteSpace=wrap;html=1;strokeWidth=1;fontSize=26;align=center;fillColor=#dae8fc;strokeColor=#6c8ebf;" vertex="1" parent="R79hDYC7A3R0rNlAy6Wh-1">
          <mxGeometry x="1210" y="427.5" width="170" height="80" as="geometry" />
        </mxCell>
        <mxCell id="3Basyrr1OBcyb5jCal7Y-2" value="Outgoing Event" style="rounded=0;whiteSpace=wrap;html=1;strokeWidth=1;fontSize=26;align=center;fillColor=#dae8fc;strokeColor=#6c8ebf;" vertex="1" parent="R79hDYC7A3R0rNlAy6Wh-1">
          <mxGeometry x="1210" y="518" width="170" height="80" as="geometry" />
        </mxCell>
        <mxCell id="3Basyrr1OBcyb5jCal7Y-4" value="" style="endArrow=classic;html=1;fontSize=26;" edge="1" parent="R79hDYC7A3R0rNlAy6Wh-1">
          <mxGeometry width="50" height="50" relative="1" as="geometry">
            <mxPoint x="1040" y="557.5" as="sourcePoint" />
            <mxPoint x="1210" y="557.5" as="targetPoint" />
          </mxGeometry>
        </mxCell>
        <mxCell id="3Basyrr1OBcyb5jCal7Y-5" value="" style="endArrow=classic;html=1;fontSize=26;" edge="1" parent="R79hDYC7A3R0rNlAy6Wh-1">
          <mxGeometry width="50" height="50" relative="1" as="geometry">
            <mxPoint x="1210" y="472.08" as="sourcePoint" />
            <mxPoint x="1040" y="472.08" as="targetPoint" />
          </mxGeometry>
        </mxCell>
        <mxCell id="EQ_2cPzaSXaZqVvjVmRI-0" value="" style="rounded=0;whiteSpace=wrap;html=1;fontSize=33;fillColor=none;strokeColor=#FF0000;strokeWidth=4;dashed=1;dashPattern=1 1;perimeterSpacing=9;" vertex="1" parent="R79hDYC7A3R0rNlAy6Wh-1">
          <mxGeometry x="1010" y="407.5" width="390" height="212.5" as="geometry" />
        </mxCell>
      </root>
    </mxGraphModel>
  </diagram>
  <diagram id="Fgl50AeHcXkZguO-Ct59" name="08 - note">
    <mxGraphModel dx="715" dy="352" grid="1" gridSize="10" guides="1" tooltips="1" connect="1" arrows="1" fold="1" page="1" pageScale="1" pageWidth="1920" pageHeight="1200" math="0" shadow="0">
      <root>
        <mxCell id="tH6z1bBckIfq7DfBymJQ-0" />
        <mxCell id="tH6z1bBckIfq7DfBymJQ-1" parent="tH6z1bBckIfq7DfBymJQ-0" />
        <mxCell id="jNv3tMuCjNAEclWrQsel-0" value="How will we run these tests?" style="text;html=1;strokeColor=none;fillColor=none;align=center;verticalAlign=middle;whiteSpace=wrap;rounded=0;fontSize=26;fontStyle=5" vertex="1" parent="tH6z1bBckIfq7DfBymJQ-1">
          <mxGeometry x="590" y="220" width="390" height="20" as="geometry" />
        </mxCell>
        <mxCell id="jNv3tMuCjNAEclWrQsel-3" style="edgeStyle=orthogonalEdgeStyle;rounded=0;orthogonalLoop=1;jettySize=auto;html=1;exitX=0.5;exitY=1;exitDx=0;exitDy=0;fontSize=21;" edge="1" parent="tH6z1bBckIfq7DfBymJQ-1" source="jNv3tMuCjNAEclWrQsel-1" target="jNv3tMuCjNAEclWrQsel-2">
          <mxGeometry relative="1" as="geometry" />
        </mxCell>
        <mxCell id="jNv3tMuCjNAEclWrQsel-1" value="We are going to run these tests directly from our terminal without using docker" style="rounded=0;whiteSpace=wrap;html=1;strokeWidth=1;fontSize=21;align=center;fillColor=#dae8fc;strokeColor=#6c8ebf;" vertex="1" parent="tH6z1bBckIfq7DfBymJQ-1">
          <mxGeometry x="550" y="250" width="470" height="80" as="geometry" />
        </mxCell>
        <mxCell id="jNv3tMuCjNAEclWrQsel-2" value="This implies that our &lt;i&gt;local environment&lt;/i&gt;&amp;nbsp;is capable of running each service!" style="rounded=0;whiteSpace=wrap;html=1;strokeWidth=1;fontSize=21;align=center;fillColor=#dae8fc;strokeColor=#6c8ebf;" vertex="1" parent="tH6z1bBckIfq7DfBymJQ-1">
          <mxGeometry x="550" y="350" width="470" height="80" as="geometry" />
        </mxCell>
        <mxCell id="jNv3tMuCjNAEclWrQsel-6" style="edgeStyle=orthogonalEdgeStyle;rounded=0;orthogonalLoop=1;jettySize=auto;html=1;exitX=0.5;exitY=1;exitDx=0;exitDy=0;fontSize=21;" edge="1" parent="tH6z1bBckIfq7DfBymJQ-1" target="jNv3tMuCjNAEclWrQsel-7">
          <mxGeometry relative="1" as="geometry">
            <mxPoint x="785" y="430" as="sourcePoint" />
          </mxGeometry>
        </mxCell>
        <mxCell id="jNv3tMuCjNAEclWrQsel-7" value="Simple enough now, but more &lt;i&gt;complex projects&lt;/i&gt;&amp;nbsp;might make this hard!" style="rounded=0;whiteSpace=wrap;html=1;strokeWidth=1;fontSize=21;align=center;fillColor=#dae8fc;strokeColor=#6c8ebf;" vertex="1" parent="tH6z1bBckIfq7DfBymJQ-1">
          <mxGeometry x="550" y="450" width="470" height="80" as="geometry" />
        </mxCell>
      </root>
    </mxGraphModel>
  </diagram>
  <diagram id="ElYp594jax01XPyDZBUi" name="09 - process">
    <mxGraphModel dx="858" dy="422" grid="1" gridSize="10" guides="1" tooltips="1" connect="1" arrows="1" fold="1" page="1" pageScale="1" pageWidth="1920" pageHeight="1200" math="0" shadow="0">
      <root>
        <mxCell id="5YpiQuMTBO1HL4Fbq8aB-0" />
        <mxCell id="5YpiQuMTBO1HL4Fbq8aB-1" parent="5YpiQuMTBO1HL4Fbq8aB-0" />
        <mxCell id="5YpiQuMTBO1HL4Fbq8aB-6" style="edgeStyle=orthogonalEdgeStyle;rounded=0;orthogonalLoop=1;jettySize=auto;html=1;exitX=0.5;exitY=1;exitDx=0;exitDy=0;fontSize=21;" edge="1" parent="5YpiQuMTBO1HL4Fbq8aB-1" source="5YpiQuMTBO1HL4Fbq8aB-2" target="5YpiQuMTBO1HL4Fbq8aB-5">
          <mxGeometry relative="1" as="geometry" />
        </mxCell>
        <mxCell id="5YpiQuMTBO1HL4Fbq8aB-2" value="npm run test" style="rounded=0;whiteSpace=wrap;html=1;strokeWidth=1;fontSize=21;align=center;fillColor=#dae8fc;strokeColor=#6c8ebf;fontStyle=1" vertex="1" parent="5YpiQuMTBO1HL4Fbq8aB-1">
          <mxGeometry x="665" y="260" width="190" height="60" as="geometry" />
        </mxCell>
        <mxCell id="5YpiQuMTBO1HL4Fbq8aB-5" value="Jest" style="rounded=0;whiteSpace=wrap;html=1;strokeWidth=1;fontSize=21;align=center;fontStyle=1" vertex="1" parent="5YpiQuMTBO1HL4Fbq8aB-1">
          <mxGeometry x="630" y="355" width="260" height="60" as="geometry" />
        </mxCell>
        <mxCell id="5YpiQuMTBO1HL4Fbq8aB-8" value="Start in-memory copy of MongoDB" style="rounded=0;whiteSpace=wrap;html=1;strokeWidth=1;fontSize=21;align=center;fontStyle=0" vertex="1" parent="5YpiQuMTBO1HL4Fbq8aB-1">
          <mxGeometry x="940" y="250" width="420" height="60" as="geometry" />
        </mxCell>
        <mxCell id="5YpiQuMTBO1HL4Fbq8aB-11" value="Start up our express app" style="rounded=0;whiteSpace=wrap;html=1;strokeWidth=1;fontSize=21;align=center;fontStyle=0" vertex="1" parent="5YpiQuMTBO1HL4Fbq8aB-1">
          <mxGeometry x="940" y="320" width="420" height="60" as="geometry" />
        </mxCell>
        <mxCell id="5YpiQuMTBO1HL4Fbq8aB-12" value="Use supertest library to make fake requests to our express app" style="rounded=0;whiteSpace=wrap;html=1;strokeWidth=1;fontSize=21;align=center;fontStyle=0" vertex="1" parent="5YpiQuMTBO1HL4Fbq8aB-1">
          <mxGeometry x="940" y="390" width="420" height="60" as="geometry" />
        </mxCell>
        <mxCell id="5YpiQuMTBO1HL4Fbq8aB-13" value="Run assertions to make sure the request did the right thing" style="rounded=0;whiteSpace=wrap;html=1;strokeWidth=1;fontSize=21;align=center;fontStyle=0" vertex="1" parent="5YpiQuMTBO1HL4Fbq8aB-1">
          <mxGeometry x="940" y="460" width="420" height="60" as="geometry" />
        </mxCell>
        <mxCell id="5YpiQuMTBO1HL4Fbq8aB-14" value="" style="shape=curlyBracket;whiteSpace=wrap;html=1;rounded=1;strokeWidth=1;fontSize=21;align=center;" vertex="1" parent="5YpiQuMTBO1HL4Fbq8aB-1">
          <mxGeometry x="890" y="250" width="40" height="270" as="geometry" />
        </mxCell>
      </root>
    </mxGraphModel>
  </diagram>
</mxfile>
